# xmcd
# Copyright (C) 1995-1998 Ti Kan
#
# Track frame offsets:
#       150
#       16446
#       30030
#       42247
#       60565
#       87272
#       99499
#       130744
#       147303
#       164285
#       187031
#       208895
#       230843
#       247791
#       273211
#       290963
#       306097
#       323858
#       336557
#
# Disc length: 4795 seconds
#
# Revision: 0
# Processed by: cddbd v1.5.2PL0 Copyright (c) Steve Scherf et al.
# Submitted via: CD-Transfer v1.0
#
DISCID=1612b913
DTITLE=Various 2008 - 
DYEAR=08
DGENRE=
TTITLE0=Bug, The Ft. Tippa Irie Angry
TTITLE1=Foals Balloons
TTITLE2=Ra Ra Riot Can You Tell
TTITLE3=Oberst, Conor Cape Canaveral
TTITLE4=Howlin Rain Dancers At The End Of Time
TTITLE5=No Age Eraser
TTITLE6=Glasvegas Flowers And Football Tops
TTITLE7=Bon Iver For Emma
TTITLE8=Frightened Rabbit Head Rolls Off
TTITLE9=Black Crowes, The Goodbye Daughters Of The Revolution
TTITLE10=M83 Graveyard Girl
TTITLE11=Cut Copy Hearts On Fire
TTITLE12=Koushik In A Green Space
TTITLE13=Diamanda Galas Long Black Veil
TTITLE14=Stone Gods Magdalene Street
TTITLE15=Fucked Up Magic Word
TTITLE16=Department Of Eagles No One Does It Like You
TTITLE17=Blood On The Wall Rize
TTITLE18=Shearwater Snow Leopard, The
EXTD=
EXTT0=
EXTT1=
EXTT2=
EXTT3=
EXTT4=
EXTT5=
EXTT6=
EXTT7=
EXTT8=
EXTT9=
EXTT10=
EXTT11=
EXTT12=
EXTT13=
EXTT14=
EXTT15=
EXTT16=
EXTT17=
EXTT18=
PLAYORDER=
